<?xml version="1.0" standalone="no"?>
<!DOCTYPE svg PUBLIC "-//W3C//DTD SVG 20010904//EN"
 "http://www.w3.org/TR/2001/REC-SVG-20010904/DTD/svg10.dtd">
<svg version="1.0" xmlns="http://www.w3.org/2000/svg"
 width="818.000000pt" height="360.000000pt" viewBox="0 0 818.000000 360.000000"
 preserveAspectRatio="xMidYMid meet">
<metadata>
Created by potrace 1.16, written by Peter Selinger 2001-2019
</metadata>
<g transform="translate(0.000000,360.000000) scale(0.100000,-0.100000)"
fill="#000000" stroke="none">
<path d="M6508 3447 c-81 -56 -147 -106 -148 -112 0 -5 27 -44 60 -86 64 -84
64 -92 0 -104 -55 -10 -72 -27 -60 -59 6 -18 14 -25 22 -20 37 21 78 57 78 68
0 8 6 16 14 19 10 4 35 -20 73 -70 l58 -76 73 79 c41 44 90 99 110 122 l36 44
-76 146 c-42 81 -80 148 -85 149 -4 1 -74 -44 -155 -100z"/>
<path d="M4336 3444 c-17 -36 -16 -37 5 -60 12 -13 29 -24 36 -24 8 0 16 -7
19 -15 4 -8 12 -15 20 -15 35 0 46 -202 12 -224 -13 -8 -25 -6 -47 7 -16 9
-33 17 -39 17 -32 0 -292 -264 -292 -297 0 -5 9 -18 20 -28 11 -10 20 -23 20
-29 0 -6 -20 -45 -44 -86 -25 -41 -41 -78 -38 -81 8 -8 354 40 364 49 10 11
198 492 198 508 0 11 -11 9 -50 -11 l-50 -25 0 53 c0 29 -6 76 -14 105 -7 29
-10 55 -6 57 15 9 -19 80 -51 107 -18 16 -36 28 -39 28 -4 0 -14 -16 -24 -36z"/>
<path d="M2029 3347 c-44 -36 -59 -70 -63 -140 -5 -76 -15 -98 -55 -126 -29
-21 -30 -21 -36 -2 -3 11 1 36 10 56 8 21 15 43 15 51 0 18 -78 62 -151 85
-84 26 -107 25 -115 -6 -7 -28 -27 -31 -64 -10 -14 8 -28 14 -32 15 -5 0 -8
-51 -8 -114 l0 -113 171 -72 c94 -40 174 -70 177 -67 3 3 4 36 3 73 -2 68 -2
68 35 93 26 17 46 44 69 95 18 38 52 92 75 118 41 46 42 48 25 67 -23 25 -24
25 -56 -3z"/>
<path d="M2516 3348 c3 -13 42 -132 86 -266 68 -207 83 -245 103 -254 20 -9
22 -14 14 -30 -13 -25 -5 -47 35 -98 39 -50 39 -96 0 -106 -38 -10 -74 -60
-74 -102 0 -20 4 -43 8 -50 11 -16 45 -4 38 14 -3 8 0 11 8 8 10 -4 12 2 9 20
-4 21 1 29 25 43 66 38 68 94 7 169 -44 54 -55 90 -35 110 8 8 43 2 116 -19
58 -16 108 -26 112 -23 3 4 -12 43 -33 87 -37 76 -39 81 -21 91 10 6 31 22 48
37 l29 26 -70 105 c-39 58 -93 130 -120 160 l-50 55 -46 -33 c-25 -17 -49 -32
-53 -32 -4 0 -35 25 -69 55 -33 30 -64 55 -68 55 -3 0 -3 -10 1 -22z"/>
<path d="M7601 3237 c-23 -11 -23 -13 -16 -92 4 -44 7 -92 7 -107 -1 -31 -66
-178 -79 -178 -4 0 -28 32 -53 70 -28 43 -52 70 -63 70 -20 0 -250 -50 -256
-56 -2 -2 11 -25 29 -50 36 -50 35 -52 -19 -83 -29 -17 40 -164 119 -253 23
-27 46 -48 51 -48 5 0 30 13 56 29 40 24 67 31 160 42 62 7 118 16 125 20 8 5
-10 41 -65 124 l-77 116 24 42 c14 23 34 67 46 97 11 30 24 64 29 75 29 65 33
88 26 140 -7 59 -8 60 -44 42z"/>
<path d="M416 3181 c-11 -19 -16 -70 -7 -76 6 -3 11 -15 11 -26 0 -10 5 -19
10 -19 6 0 10 -11 10 -25 0 -29 21 -75 58 -122 l24 -33 -46 -161 c-25 -88 -46
-165 -46 -170 0 -5 53 -9 119 -9 l119 0 6 26 c6 24 10 26 46 20 l39 -6 11 42
c6 24 13 49 16 57 2 8 9 44 14 82 11 74 -4 131 -36 143 -13 5 -15 15 -11 46
l5 40 -80 50 c-45 27 -85 47 -89 44 -5 -3 -18 -37 -29 -77 -32 -111 -28 -105
-55 -75 -12 14 -31 48 -41 73 -16 44 -16 48 -1 56 14 8 37 66 37 94 0 12 -78
36 -84 26z"/>
<path d="M5201 3081 c-14 -26 -26 -38 -35 -35 -17 7 -189 -143 -183 -159 3
-11 109 -61 182 -87 l30 -11 -30 -19 c-16 -10 -55 -21 -85 -24 -97 -9 -116
-15 -118 -42 -2 -21 2 -24 36 -24 38 0 85 21 163 74 l42 28 76 -31 c42 -17 83
-31 91 -31 14 0 170 160 170 175 0 3 -14 11 -31 17 -22 8 -28 15 -23 27 19 46
16 56 -30 89 -56 41 -143 80 -195 88 -38 6 -40 5 -60 -35z"/>
<path d="M3466 2657 c-25 -8 -28 -13 -23 -44 3 -18 13 -48 21 -65 9 -17 16
-42 16 -55 l0 -23 -40 25 c-22 14 -42 25 -46 25 -9 0 -272 -181 -285 -196 -10
-12 15 -42 137 -165 82 -83 157 -155 166 -160 14 -8 42 18 155 141 76 83 138
156 138 163 0 6 -48 44 -107 85 -101 69 -108 76 -108 107 0 19 5 37 10 40 11
7 13 104 2 121 -5 8 -16 8 -36 1z"/>
<path d="M5646 2645 c-11 -8 -16 -15 -10 -15 5 0 2 -5 -6 -10 -13 -9 -9 -15
20 -40 19 -17 41 -30 50 -30 24 0 82 -23 132 -53 51 -30 88 -36 155 -23 56 10
65 -9 27 -59 -15 -19 -25 -37 -23 -38 2 -2 36 -31 75 -64 60 -51 231 -165 268
-179 6 -2 21 12 34 31 12 19 29 35 37 35 8 0 48 -17 89 -37 42 -20 78 -34 81
-31 3 3 -18 72 -48 154 l-53 149 -279 86 c-154 48 -282 85 -284 83 -3 -3 17
-27 44 -54 27 -27 46 -52 43 -56 -13 -13 -88 -16 -122 -4 -21 7 -68 43 -117
91 -44 43 -84 79 -87 79 -4 0 -16 -7 -26 -15z"/>
<path d="M1244 2482 c-22 -3 -27 -19 -39 -118 -2 -12 -8 -31 -14 -42 -23 -43
-13 -78 30 -116 l42 -35 -48 -56 c-26 -31 -45 -58 -42 -62 3 -3 41 7 84 21 43
14 83 26 88 26 6 0 23 -23 38 -50 16 -28 31 -50 35 -50 20 1 220 105 285 149
l76 51 -29 51 c-17 27 -30 53 -30 57 1 4 32 32 70 62 39 30 70 59 70 64 0 4
-19 6 -42 2 -24 -3 -112 -13 -197 -21 -85 -9 -160 -19 -167 -23 -6 -4 -48 -51
-93 -104 -44 -53 -85 -99 -90 -102 -14 -9 -81 59 -81 82 0 32 19 74 39 88 25
18 43 65 39 100 -2 23 -7 28 -24 26z"/>
<path d="M4850 2258 c0 -40 -3 -83 -6 -96 -10 -37 -44 -24 -80 31 -40 60 -38
59 -71 63 -18 2 -36 -5 -50 -18 -15 -14 -30 -19 -45 -15 -13 3 -31 0 -41 -8
-18 -13 -17 -15 13 -30 38 -19 85 -12 103 16 20 32 51 23 91 -26 21 -25 46
-45 56 -45 11 0 20 -8 22 -19 3 -21 358 -289 358 -271 0 5 -11 35 -25 67 l-26
57 38 32 37 31 -48 79 c-26 44 -67 101 -91 129 l-43 49 -38 -27 -39 -27 -50
50 c-28 28 -54 50 -58 50 -4 0 -7 -33 -7 -72z"/>
<path d="M7148 1823 l-13 -48 -5 38 c-6 43 -23 51 -28 12 -2 -14 -10 -25 -17
-25 -26 0 -30 -67 -6 -118 42 -95 60 -154 51 -171 -5 -9 -20 -79 -35 -155 -26
-141 -29 -149 -74 -198 -57 -64 -181 -101 -181 -54 0 11 7 27 15 37 23 24 10
112 -22 150 -28 33 -90 53 -136 44 -54 -10 -104 -36 -115 -59 -12 -26 2 -137
22 -178 17 -33 17 -33 -31 -13 -19 8 -46 15 -59 15 -14 0 -25 8 -29 20 -3 11
-15 25 -26 30 -10 6 -19 16 -19 22 0 6 -6 19 -14 27 -9 11 -17 60 -22 154 -9
134 -8 139 15 185 13 26 36 58 52 72 28 26 50 90 30 90 -6 0 -11 7 -11 15 0
21 -19 19 -26 -2 -15 -45 -18 -46 -23 -9 -5 31 -11 40 -28 42 -17 3 -24 -2
-27 -19 -3 -12 -7 -31 -9 -42 -3 -11 -5 -6 -6 13 -1 22 -5 32 -13 30 -8 -3
-15 -32 -18 -79 -4 -56 -11 -82 -28 -107 -13 -17 -27 -32 -32 -32 -5 0 -13
-15 -20 -34 -10 -31 -16 -34 -70 -46 -39 -8 -60 -18 -60 -27 0 -8 11 -53 24
-101 14 -48 27 -101 31 -117 l6 -30 -68 0 c-64 0 -72 -3 -130 -43 -46 -32 -63
-50 -63 -67 0 -12 -9 -33 -19 -46 -33 -41 -30 -47 -137 315 -19 66 -41 125
-49 130 -8 7 -16 45 -20 102 l-7 90 46 88 c49 94 55 111 31 102 -10 -4 -15 1
-15 14 0 32 -19 23 -28 -12 -5 -21 -16 -34 -28 -37 -32 -5 -54 -32 -54 -65 0
-17 -7 -40 -15 -50 -8 -11 -15 -38 -15 -60 0 -23 -5 -85 -12 -139 l-12 -99
-38 -15 c-21 -8 -38 -22 -38 -30 0 -34 54 -227 97 -344 l45 -126 -56 -72 c-35
-46 -56 -83 -56 -100 0 -37 -10 -48 -52 -56 -31 -6 -37 -4 -43 14 -3 12 -3 35
0 52 6 25 1 38 -24 69 -17 21 -31 41 -31 43 0 12 77 81 88 79 22 -5 44 20 38
42 -3 12 -1 28 4 36 7 11 10 11 10 2 0 -7 4 -11 9 -8 5 3 11 32 13 63 7 78
-16 124 -72 147 -95 38 -192 2 -218 -82 -8 -23 -17 -42 -21 -42 -4 0 -22 16
-41 35 -30 31 -69 123 -70 164 0 22 -53 151 -62 151 -11 0 -48 85 -48 108 0
31 16 42 84 61 37 10 69 21 72 24 3 3 1 22 -6 42 -9 28 -16 35 -29 30 -68 -28
-130 -45 -165 -45 -26 0 -53 -9 -75 -24 -20 -13 -60 -29 -89 -36 -28 -7 -54
-16 -57 -21 -3 -4 1 -24 9 -43 l15 -35 62 24 c91 36 94 35 108 -35 7 -33 10
-64 7 -69 -3 -5 -24 -11 -46 -15 -35 -5 -40 -9 -35 -29 2 -12 16 -85 30 -162
17 -92 39 -175 66 -243 24 -62 38 -113 35 -126 -3 -12 -21 -29 -42 -38 l-37
-17 7 54 c4 34 -1 104 -14 190 -11 75 -20 138 -20 139 0 2 -20 7 -44 10 -38 6
-45 11 -59 44 -21 47 -102 199 -115 215 -6 7 -13 29 -17 50 -6 30 -10 35 -21
26 -11 -9 -14 -8 -14 4 0 9 -5 19 -11 23 -8 5 -10 -4 -7 -30 5 -44 -6 -46 -27
-6 -20 38 -38 40 -24 3 10 -26 9 -26 -9 -10 -10 9 -21 15 -24 12 -8 -8 25 -74
38 -75 21 0 86 -85 111 -144 34 -82 49 -232 28 -293 -8 -24 -15 -49 -15 -56
-1 -22 -76 -96 -89 -88 -10 7 -8 17 8 49 11 22 23 67 27 99 3 32 8 61 10 65
18 28 -70 87 -129 88 -97 1 -158 -139 -96 -219 11 -13 19 -36 19 -51 0 -24 -3
-27 -25 -22 -14 2 -35 16 -46 31 -20 24 -21 34 -15 135 4 61 9 120 12 133 5
17 2 23 -11 23 -15 0 -17 6 -11 40 3 22 19 66 34 98 24 51 33 60 85 84 63 31
73 44 25 34 -31 -6 -31 -6 -13 14 24 27 11 38 -16 14 l-22 -19 17 33 c19 37
13 56 -15 47 -12 -4 -19 -2 -19 7 -1 7 -16 -5 -35 -27 l-34 -40 -32 31 -31 31
26 51 c14 28 44 76 66 108 22 31 40 67 40 79 0 24 -41 65 -85 84 -45 19 -58
-5 -51 -93 6 -68 6 -69 -33 -120 -90 -116 -331 -343 -437 -411 -54 -35 -58
-36 -71 -19 -21 29 -16 74 12 100 23 21 25 29 20 76 -12 107 -15 116 -52 148
-34 30 -40 32 -99 28 -71 -4 -121 -32 -116 -64 1 -11 4 -66 5 -124 2 -92 5
-109 26 -138 28 -40 21 -54 -10 -18 -12 14 -28 26 -34 26 -6 0 -74 86 -151
191 -76 105 -144 194 -151 196 -17 7 -48 106 -40 128 6 14 20 16 94 13 l88 -3
0 45 0 45 -81 0 c-46 0 -87 5 -95 12 -16 13 -69 9 -100 -7 -11 -6 -61 -10
-117 -8 l-97 3 0 -45 0 -45 98 3 97 4 24 -54 c14 -29 27 -73 31 -98 l6 -45
-55 -34 c-31 -18 -56 -37 -56 -41 0 -5 33 -50 73 -102 39 -51 84 -111 98 -133
15 -22 64 -85 109 -140 l83 -100 -7 -134 c-3 -74 -6 -154 -6 -179 0 -43 -1
-44 -27 -37 -16 4 -42 22 -59 41 -29 31 -30 35 -16 56 8 13 21 28 28 34 19 16
46 82 35 88 -4 3 -6 28 -3 55 4 45 2 53 -25 80 -39 39 -105 57 -154 42 -49
-15 -89 -62 -89 -107 0 -24 -5 -34 -15 -34 -19 0 -20 -57 -1 -79 7 -9 17 -27
21 -40 l8 -25 -31 26 c-17 14 -36 28 -42 30 -13 4 -130 475 -130 520 0 20 9
39 25 54 26 24 41 65 31 89 -8 21 -53 37 -95 33 -42 -4 -48 -19 -50 -118 -2
-100 -6 -108 -57 -116 -24 -3 -46 -10 -49 -14 -4 -6 4 -100 20 -236 l4 -41
-49 5 c-46 4 -52 2 -85 -31 -23 -23 -35 -44 -35 -63 0 -15 -5 -53 -12 -85 -10
-51 -10 -60 10 -100 l22 -44 -27 31 c-14 17 -36 60 -49 95 l-23 63 45 52 c31
37 62 95 104 192 33 78 60 143 60 146 0 3 -17 17 -39 31 -37 25 -38 27 -30 68
7 38 35 126 54 170 13 31 -11 18 -29 -15 -9 -18 -14 -24 -11 -13 23 75 14 98
-13 32 l-12 -32 4 43 c2 23 1 42 -4 42 -9 0 -19 -35 -21 -70 0 -20 -3 -17 -14
15 -11 34 -13 36 -15 15 -1 -14 -1 -39 0 -56 2 -36 -14 -51 -35 -34 -8 7 -22
10 -30 6 -12 -4 -6 -14 25 -42 41 -38 50 -60 26 -66 -8 -2 -64 -70 -123 -153
-60 -82 -117 -151 -125 -153 -10 -2 -22 8 -30 24 -7 15 -20 29 -28 31 -11 3
-10 0 3 -10 16 -14 16 -15 -10 -20 -35 -7 -36 -6 -17 21 20 28 47 28 68 0 16
-22 16 -14 0 26 -4 10 2 12 23 9 l28 -4 -27 15 c-15 9 -29 24 -33 35 -3 10
-28 28 -55 40 -28 12 -50 26 -50 31 0 14 13 12 29 -2 11 -11 13 -10 9 2 -9 29
-87 63 -148 64 -63 1 -95 -15 -134 -68 -37 -49 -21 -161 32 -218 32 -35 24
-45 -12 -17 -23 18 -34 20 -86 14 -42 -5 -60 -11 -60 -21 0 -10 -14 -14 -51
-14 l-51 0 23 38 c12 20 35 55 49 77 20 29 170 329 170 339 0 1 -16 10 -35 20
-19 11 -35 22 -35 25 0 17 30 114 38 124 5 7 12 24 16 40 3 15 11 27 16 27 6
0 10 7 10 15 0 8 6 15 13 15 6 0 4 5 -6 11 -10 6 -25 8 -33 5 -22 -8 -17 3 13
28 l27 23 -28 5 c-22 5 -36 -2 -67 -32 -35 -33 -39 -42 -39 -86 0 -48 -31
-134 -48 -134 -5 0 -51 -63 -102 -140 -62 -93 -107 -149 -132 -165 -21 -14
-41 -25 -44 -25 -4 0 -16 -8 -26 -17 -29 -26 -44 -3 -24 36 25 47 12 124 -26
156 -38 32 -86 40 -131 22 -72 -31 -84 -118 -29 -220 10 -19 -39 15 -52 36 -8
12 -31 85 -50 162 -20 77 -43 154 -51 172 -21 43 -19 113 5 164 21 47 27 129
10 129 -6 0 -13 -7 -16 -15 -8 -21 -21 -19 -27 5 -9 36 -26 22 -20 -17 5 -31
3 -36 -8 -25 -29 27 -37 13 -35 -60 0 -40 -4 -107 -9 -148 -10 -74 -10 -74
-45 -84 -19 -5 -36 -10 -38 -11 -7 -5 41 -262 74 -398 20 -81 35 -150 32 -152
-2 -3 -20 0 -39 5 -19 6 -54 7 -78 4 l-45 -7 23 39 c13 21 27 64 31 94 7 54 7
55 -29 88 -20 18 -45 41 -57 52 -31 29 -44 25 -93 -31 l-44 -50 6 -91 6 -90
-29 5 c-18 4 -32 1 -39 -7 -12 -14 -27 -13 -89 6 -39 12 -64 56 -112 203 -19
55 -37 104 -41 108 -4 5 -2 21 4 37 12 31 38 40 113 40 23 0 53 4 66 9 21 8
24 14 20 46 -4 37 -5 37 -41 31 -117 -20 -119 -20 -123 5 l-5 24 -10 -24 c-6
-15 -19 -25 -34 -27 -217 -22 -232 -28 -210 -87 9 -24 12 -25 52 -16 24 6 53
9 65 7 l22 -3 -17 -50 c-13 -38 -26 -55 -54 -71 -20 -11 -39 -23 -43 -26 -7
-8 80 -309 104 -357 23 -46 67 -77 164 -115 l83 -32 8 -84 c4 -45 3 -88 -2
-94 -4 -6 -18 -41 -31 -79 -24 -73 -22 -144 6 -200 13 -27 11 -32 -36 -97 -28
-37 -50 -71 -50 -74 0 -3 1631 -6 3624 -6 l3625 0 7 57 c7 60 -2 264 -15 346
-7 44 -2 65 56 235 59 172 148 471 141 477 -2 1 -28 9 -58 17 -50 13 -55 17
-56 44 0 16 -4 83 -8 150 -10 139 -3 184 25 184 10 0 48 -11 84 -24 35 -14 66
-22 68 -18 3 4 7 24 11 45 l7 37 69 0 c39 0 70 3 70 8 0 4 -61 38 -135 75
l-135 67 -132 -11 c-73 -5 -144 -13 -158 -16 -23 -5 -22 -6 18 -24 26 -11 42
-25 43 -36 0 -17 1 -17 8 1 6 17 9 17 23 3 12 -12 14 -26 8 -56 -5 -31 -4 -41
6 -41 19 0 27 -53 26 -160 -1 -101 -9 -169 -22 -185 -4 -5 -22 -66 -40 -135
-30 -121 -33 -126 -78 -167 -25 -24 -55 -43 -66 -43 -11 0 -30 -10 -43 -22
-25 -24 -44 -17 -25 10 26 36 31 64 25 125 -5 52 -11 67 -39 95 -24 24 -41 32
-68 32 l-35 0 24 53 c14 28 25 57 25 62 0 6 21 62 46 125 25 63 42 116 37 118
-61 23 -99 51 -108 77 -5 16 -18 37 -27 47 -34 34 -42 88 -25 170 13 61 14 81
4 102 -7 14 -18 26 -24 26 -7 0 -13 5 -13 10 0 6 -4 10 -10 10 -5 0 -15 -21
-22 -47z m-2854 -557 c-57 -121 -60 -126 -90 -126 l-32 0 -7 -77 c-10 -120 -9
-118 -60 -119 -55 -2 -95 -26 -95 -58 0 -13 -7 -29 -15 -36 -13 -11 -15 -3
-15 58 0 39 5 81 11 94 6 13 51 55 101 93 77 60 102 87 171 187 44 65 82 116
85 113 2 -2 -22 -60 -54 -129z m2881 -470 l27 -67 -39 -34 c-68 -61 -72 -51
-52 136 12 119 21 142 30 78 4 -25 19 -75 34 -113z"/>
</g>
</svg>
